<svg width="100" height="100" version="1.1" xmlns="http://www.w3.org/2000/svg" desc="Created with imagetracer.js version 1.2.6" ><path fill="rgb(25,0,0)" stroke="rgb(25,0,0)" stroke-width="1" opacity="0.03529411764705882" d="M 0 0 L 40 0.5 Q 20.9 4.4 11 17.5 Q 2.9 25.9 0.5 40 L 0 0 Z " /><path fill="rgb(25,0,0)" stroke="rgb(25,0,0)" stroke-width="1" opacity="0.03529411764705882" d="M 60.5 0 L 100 0 L 100 39.5 L 99 39.5 Q 95.5 20.5 82.5 11 L 75.5 6 Q 69.5 2 60.5 1 L 60.5 0 Z " /><path fill="rgb(25,0,0)" stroke="rgb(25,0,0)" stroke-width="1" opacity="0.03529411764705882" d="M 0.5 60 Q 4.4 79.1 17.5 89 Q 25.9 97.1 40 99.5 L 0 100 L 0.5 60 Z " /><path fill="rgb(25,0,0)" stroke="rgb(25,0,0)" stroke-width="1" opacity="0.03529411764705882" d="M 99.5 60 L 100 100 L 60 99.5 Q 79.1 95.6 89 82.5 Q 97.1 74.1 99.5 60 Z " /><path fill="rgb(255,1,1)" stroke="rgb(255,1,1)" stroke-width="1" opacity="0.996078431372549" d="M 39.5 28 L 35.5 33 L 39.5 28 Z " /><path fill="rgb(255,1,1)" stroke="rgb(255,1,1)" stroke-width="1" opacity="0.996078431372549" d="M 60.5 28 L 61.5 30 L 60.5 28 Z " /><path fill="rgb(255,1,1)" stroke="rgb(255,1,1)" stroke-width="1" opacity="0.996078431372549" d="M 63.5 31 L 64.5 33 L 63.5 31 Z " /><path fill="rgb(255,1,1)" stroke="rgb(255,1,1)" stroke-width="1" opacity="0.996078431372549" d="M 44.5 32 L 41.5 36 L 44.5 32 Z " /><path fill="rgb(255,1,1)" stroke="rgb(255,1,1)" stroke-width="1" opacity="0.996078431372549" d="M 58.5 35 L 57.5 37 L 58.5 35 Z " /><path fill="rgb(255,1,1)" stroke="rgb(255,1,1)" stroke-width="1" opacity="0.996078431372549" d="M 61.5 43 L 62 46.5 L 61 46.5 L 61.5 43 Z " /><path fill="rgb(255,1,1)" stroke="rgb(255,1,1)" stroke-width="1" opacity="0.996078431372549" d="M 68.5 43 L 69 53.5 L 68 53.5 L 68.5 43 Z " /><path fill="rgb(255,1,1)" stroke="rgb(255,1,1)" stroke-width="1" opacity="0.996078431372549" d="M 38.5 44 L 39 52.5 L 38 52.5 L 38.5 44 Z " /><path fill="rgb(255,1,1)" stroke="rgb(255,1,1)" stroke-width="1" opacity="0.996078431372549" d="M 31.5 46 L 32 50.5 L 31 50.5 L 31.5 46 Z " /><path fill="rgb(255,1,1)" stroke="rgb(255,1,1)" stroke-width="1" opacity="0.996078431372549" d="M 61.5 50 L 62 53.5 L 61 53.5 L 61.5 50 Z " /><path fill="rgb(255,1,1)" stroke="rgb(255,1,1)" stroke-width="1" opacity="0.996078431372549" d="M 42.5 60 L 41.5 62 L 42.5 60 Z " /><path fill="rgb(255,1,1)" stroke="rgb(255,1,1)" stroke-width="1" opacity="0.996078431372549" d="M 58.5 61 L 55.5 65 L 58.5 61 Z " /><path fill="rgb(255,1,1)" stroke="rgb(255,1,1)" stroke-width="1" opacity="0.996078431372549" d="M 35.5 64 L 36.5 66 L 35.5 64 Z " /><path fill="rgb(255,1,1)" stroke="rgb(255,1,1)" stroke-width="1" opacity="0.996078431372549" d="M 64.5 64 L 60.5 69 L 64.5 64 Z " /><path fill="rgb(255,0,0)" stroke="rgb(255,0,0)" stroke-width="1" opacity="1" d="M 40.5 0 Q 58.7 -2.2 69.5 3 Q 81.3 8.2 89 17.5 Q 95.8 25.2 99 36.5 L 100 40.5 L 100 59.5 Q 95.7 78.7 82.5 89 Q 74.8 95.8 63.5 99 L 59.5 100 L 40.5 100 Q 21.3 95.7 11 82.5 Q 4.2 74.8 1 63.5 L 0 59.5 L 0 40.5 Q 4.3 21.3 17.5 11 Q 26.4 2.9 40.5 0 Z M 58 20 L 57 25 L 56 26 L 44 26 L 40 28 L 33 37 L 31 47 L 33 61 L 39 69 L 36 75 L 37 76 L 42 76 L 43 71 L 57 71 L 61 69 L 65 65 L 69 54 L 68 39 L 61 29 L 64 22 L 64 20 L 58 20 Z " /><path fill="rgb(255,0,0)" stroke="rgb(255,0,0)" stroke-width="1" opacity="1" d="M 49.5 31 L 54 32.5 L 41.5 61 Q 36.8 54.7 39 41.5 Q 40.5 35 45.5 32 L 49.5 31 Z " /><path fill="rgb(255,0,0)" stroke="rgb(255,0,0)" stroke-width="1" opacity="1" d="M 58.5 36 L 61 41.5 L 62 49.5 Q 59.5 51 61 56.5 L 54.5 65 L 49.5 66 L 46 64.5 L 58.5 36 Z " /><path fill="rgb(255,238,238)" stroke="rgb(255,238,238)" stroke-width="1" opacity="1" d="M 59.5 20 Q 64.3 18.3 63 22.5 L 60 28.5 L 63 30 L 68 40.5 L 68 56.5 Q 65.9 64.8 59.5 69 Q 54.4 72.4 44.5 71 L 43 70.5 L 40.5 76 L 36 75.5 L 40 68.5 L 37 66.5 Q 29.8 58.7 32 41.5 Q 33.8 32.3 40.5 28 Q 46.4 24.3 57 26 L 59.5 20 Z M 48 31 L 45 32 L 41 36 L 38 45 L 39 58 L 42 62 L 44 59 L 54 33 Q 53 30 48 31 Z M 59 35 L 46 64 L 48 66 L 56 65 Q 61 61 62 54 Q 63 41 59 35 Z " /></svg>